<?xml version="1.0" encoding="UTF-8" standalone="no"?>
<!-- Created with Inkscape (http://www.inkscape.org/) -->

<svg
   xmlns:dc="http://purl.org/dc/elements/1.1/"
   xmlns:cc="http://creativecommons.org/ns#"
   xmlns:rdf="http://www.w3.org/1999/02/22-rdf-syntax-ns#"
   xmlns:svg="http://www.w3.org/2000/svg"
   xmlns="http://www.w3.org/2000/svg"
   xmlns:sodipodi="http://sodipodi.sourceforge.net/DTD/sodipodi-0.dtd"
   xmlns:inkscape="http://www.inkscape.org/namespaces/inkscape"
   width="93.096687"
   height="30.136545"
   id="svg2"
   version="1.1"
   inkscape:version="0.48.4 r9939"
   sodipodi:docname="aego7.svg">
  <defs
     id="defs4">
    <inkscape:path-effect
       effect="spiro"
       id="path-effect4500"
       is_visible="true" />
  </defs>
  <sodipodi:namedview
     id="base"
     pagecolor="#ffffff"
     bordercolor="#666666"
     borderopacity="1.0"
     inkscape:pageopacity="0.0"
     inkscape:pageshadow="2"
     inkscape:zoom="5.6568543"
     inkscape:cx="19.238561"
     inkscape:cy="19.632955"
     inkscape:document-units="px"
     inkscape:current-layer="layer1"
     showgrid="false"
     inkscape:window-width="1366"
     inkscape:window-height="705"
     inkscape:window-x="-8"
     inkscape:window-y="-8"
     inkscape:window-maximized="1"
     fit-margin-top="0"
     fit-margin-left="0"
     fit-margin-right="0"
     fit-margin-bottom="0" />
  <metadata
     id="metadata7">
    <rdf:RDF>
      <cc:Work
         rdf:about="">
        <dc:format>image/svg+xml</dc:format>
        <dc:type
           rdf:resource="http://purl.org/dc/dcmitype/StillImage" />
        <dc:title></dc:title>
      </cc:Work>
    </rdf:RDF>
  </metadata>
  <g
     inkscape:label="1. réteg"
     inkscape:groupmode="layer"
     id="layer1"
     transform="translate(-103.09435,-220.38673)">
    <flowRoot
       xml:space="preserve"
       id="flowRoot2989"
       style="font-size:40px;font-style:normal;font-weight:normal;line-height:125%;letter-spacing:0px;word-spacing:0px;fill:#000000;fill-opacity:1;stroke:none;font-family:Sans"><flowRegion
         id="flowRegion2991"><rect
           id="rect2993"
           width="155"
           height="55.714287"
           x="86.785713"
           y="221.64789" /></flowRegion><flowPara
         id="flowPara2995" /></flowRoot>    <g
       style="font-size:40px;font-style:normal;font-variant:normal;font-weight:normal;font-stretch:normal;line-height:125%;letter-spacing:-5.5px;word-spacing:0px;fill:#0088cc;fill-opacity:1;stroke:none;font-family:Levenim MT;-inkscape-font-specification:Levenim MT"
       id="text2997"
       transform="translate(-0.49107143,0)"
       inkscape:export-filename="C:\Users\jupi\Desktop\aego600.png"
       inkscape:export-xdpi="600.26807"
       inkscape:export-ydpi="600.26807">
      <path
         d="m 122.57254,242.04968 c -0.007,-1.0596 -0.0446,-2.17913 -0.0446,-2.17913 -3.15292,2.08519 -4.65868,2.85993 -8.04408,2.85993 -3.07293,0 -5.66407,-1.10677 -7.77344,-3.32031 -2.08334,-2.17448 -3.125,-4.81119 -3.125,-7.91016 0,-3.05988 1.06445,-5.67707 3.19336,-7.85156 2.1289,-2.17446 4.7233,-3.2617 7.7832,-3.26172 3.50259,2e-5 6.72871,1.53148 8.88179,3.95347 1.8295,2.058 2.36232,4.38674 2.45203,7.88856 0.0947,3.69652 -0.17757,8.39127 -0.5385,9.86558 -0.36093,1.47431 -2.7778,1.01493 -2.78469,-0.0447 z m 0.62222,-10.37389 c -3e-5,-2.43488 -0.79755,-4.48566 -2.39258,-6.15234 -1.59507,-1.66665 -3.60353,-2.49998 -6.02539,-2.5 -3.25522,2e-5 -5.6836,1.4258 -7.28516,4.27734 -0.76823,1.35418 -1.15235,2.78647 -1.15234,4.29688 -1e-5,1.51042 0.38411,2.94597 1.15234,4.30664 0.76822,1.36068 1.80012,2.42188 3.0957,3.18359 1.29557,0.76172 2.68554,1.14258 4.16993,1.14258 1.49738,0 2.91665,-0.3776 4.25781,-1.13281 1.34112,-0.75521 2.37302,-1.77734 3.0957,-3.06641 0.72264,-1.28905 1.08396,-2.74087 1.08399,-4.35547 z"
         style="fill:#0088cc;fill-opacity:1;font-family:Levenim MT;-inkscape-font-specification:Levenim MT"
         id="path4404"
         inkscape:connector-curvature="0"
         sodipodi:nodetypes="ccscsscaszzccsssccccccc" />
      <path
         d="m 148.02748,235.73957 c -3.10845,0.61663 -11.05878,0.74372 -16.88756,-0.0434 0.51051,0.0164 -0.74136,-0.0331 1.42209,2.10511 1.51041,1.66667 3.43749,2.5 5.78125,2.5 2.26561,0 2.78918,-0.2022 4.77958,-0.86495 1.51969,-0.57495 1.7323,-0.99409 2.5267,-0.64186 0.44686,0.19813 0.48613,1.50361 0.3079,1.83238 -0.15133,0.44366 -1.06015,0.88443 -2.7788,1.45177 -1.26059,0.41613 -3.03852,0.72266 -4.60101,0.72266 -3.19011,0 -5.83008,-1.05469 -7.91992,-3.16406 -2.08984,-2.10937 -3.13477,-4.75911 -3.13476,-7.94922 -10e-6,-2.6953 0.82682,-5.09764 2.48047,-7.20703 2.09634,-2.68227 4.90255,-3.98425 8.41796,-4.02344 3.51153,-0.0391 7.38785,1.8227 8.98461,4.7673 1.3411,2.26711 1.61228,5.13729 1.59496,6.78069 -0.0122,3.14057 -0.0639,3.68892 -0.97347,3.73405 z m -5.95371,-11.86407 c -1.14585,-0.53384 -2.35028,-0.80076 -3.61328,-0.80078 -2.08335,2e-5 -3.87371,0.67059 -5.3711,2.01172 -1.09375,0.97658 -2.93074,3.73567 -2.70144,7.58282 5.5983,0.6192 10.93735,0.75542 16.18174,0.27362 0.0907,-3.98491 -1.10882,-7.45006 -4.49592,-9.06738 z"
         style="fill:#0088cc;fill-opacity:1;font-family:Levenim MT;-inkscape-font-specification:Levenim MT"
         id="path4406"
         inkscape:connector-curvature="0"
         sodipodi:nodetypes="cccscscsssscsccccccccc" />
      <path
         d="m 172.79159,237.88311 c -2e-5,2.95573 -0.42287,6.33799 -1.33367,7.98875 -0.91441,1.65729 -2.09686,2.67355 -3.91295,3.58896 -1.82994,0.92239 -3.93568,1.09025 -5.65181,1.05901 -3.64525,-0.0664 -6.3954,-1.22813 -8.29919,-3.11614 -0.5958,-0.58829 -0.40047,-0.89059 -0.18357,-1.25165 0.2169,-0.36106 1.05384,-1.19079 2.0533,-0.3788 1.62134,1.29497 2.98833,2.1846 6.29274,2.24659 4.19794,0.0787 6.26419,-1.29026 7.46094,-3.67188 0.54685,-1.05469 0.64563,-2.02122 0.75402,-4.32425 l 0.0442,-0.93907 c -2.62157,2.25337 -4.94537,3.11489 -8.474,3.11489 -1.94011,0 -3.76954,-0.47852 -5.48828,-1.43555 -1.71875,-0.95703 -3.05013,-2.26237 -3.99414,-3.91602 -0.94401,-1.65364 -1.41602,-3.46353 -1.41601,-5.42968 -1e-5,-1.97916 0.48828,-3.81509 1.46484,-5.50782 0.97656,-1.69269 2.32747,-3.03383 4.05273,-4.02343 1.72526,-0.98957 3.54492,-1.48436 5.45899,-1.48438 3.22915,2e-5 7.65376,1.11806 10.02474,5.62724 0.50854,0.96715 1.30379,2.72453 1.18026,5.3461 0.003,2.11649 -0.0331,4.88948 -0.0331,6.50713 z m -2.61718,-6.48438 c -3e-5,-3.32029 -1.34768,-5.74217 -4.04297,-7.26562 -1.28908,-0.72915 -2.6758,-1.09373 -4.16016,-1.09375 -1.54949,2e-5 -2.98829,0.37111 -4.3164,1.11328 -1.32814,0.74221 -2.3698,1.77736 -3.125,3.10547 -0.75522,1.32814 -1.13282,2.76043 -1.13282,4.29687 0,2.40887 0.80729,4.36199 2.42188,5.85938 1.57551,1.47136 3.57421,2.20703 5.99609,2.20703 2.49999,0 4.51821,-0.74869 6.05469,-2.24609 1.53644,-1.49739 2.30466,-3.48958 2.30469,-5.97657 z"
         style="fill:#0088cc;fill-opacity:1;font-family:Levenim MT;-inkscape-font-specification:Levenim MT"
         id="path4408"
         inkscape:connector-curvature="0"
         sodipodi:nodetypes="csssczcscscssscsccsccccccsscsscc" />
      <path
         d="m 196.68211,231.70392 c -2e-5,3.12501 -1.06122,5.75847 -3.18359,7.90039 -2.12242,2.14193 -4.74611,3.21289 -7.87109,3.21289 -3.12501,0 -5.75197,-1.06771 -7.88086,-3.20312 -2.12891,-2.13542 -3.19337,-4.77213 -3.19336,-7.91016 -1e-5,-2.9427 0.97656,-5.49478 2.92968,-7.65625 2.14843,-2.38279 4.86328,-3.5742 8.14454,-3.57422 3.26821,2e-5 5.97654,1.18492 8.125,3.55469 1.9531,2.16147 2.92966,4.72006 2.92968,7.67578 z m -2.77343,0.0586 c -3e-5,-2.34373 -0.79755,-4.36522 -2.39258,-6.06445 -1.59507,-1.6992 -3.55796,-2.54881 -5.88867,-2.54883 -2.33074,2e-5 -4.29363,0.84963 -5.88868,2.54883 -1.59505,1.69923 -2.39258,3.72072 -2.39257,6.06445 -1e-5,1.51043 0.35806,2.92319 1.07421,4.23828 0.74218,1.35418 1.7513,2.39584 3.02735,3.125 1.27603,0.72917 2.66926,1.09376 4.17969,1.09375 3.22915,1e-5 5.61847,-1.38671 7.16796,-4.16015 0.74217,-1.32812 1.11326,-2.76041 1.11329,-4.29688 z"
         style="fill:#0088cc;fill-opacity:1;font-family:Levenim MT;-inkscape-font-specification:Levenim MT"
         id="path4410"
         inkscape:connector-curvature="0" />
    </g>
    <text
       xml:space="preserve"
       style="font-size:40px;font-style:normal;font-variant:normal;font-weight:normal;font-stretch:normal;line-height:125%;letter-spacing:0px;word-spacing:0px;fill:#000000;fill-opacity:1;stroke:none;font-family:Vrinda;-inkscape-font-specification:Vrinda"
       x="190.71429"
       y="294.50504"
       id="text3005"
       sodipodi:linespacing="125%"><tspan
         sodipodi:role="line"
         id="tspan3007"
         x="190.71429"
         y="294.50504" /></text>
    <path
       sodipodi:type="arc"
       id="path4425"
       sodipodi:cx="142.36607"
       sodipodi:cy="228.61218"
       sodipodi:rx="1.6517857"
       sodipodi:ry="1.7857143"
       d="m 144.01786,228.61218 c 0,0.98623 -0.73953,1.78572 -1.65179,1.78572 -0.91225,0 -1.65178,-0.79949 -1.65178,-1.78572 0,-0.98622 0.73953,-1.78571 1.65178,-1.78571 0.91226,0 1.65179,0.79949 1.65179,1.78571 z"
       transform="matrix(1.2162163,0,0,1.1,-30.426813,-21.828196)"
       style="fill:#ff7f2a;fill-opacity:1"
       inkscape:export-xdpi="150.10699"
       inkscape:export-ydpi="150.10699"
       inkscape:export-filename="C:\Users\jupi\Desktop\aego150.png" />
    <path
       sodipodi:type="arc"
       id="path4425-1"
       sodipodi:cx="142.36607"
       sodipodi:cy="228.61218"
       sodipodi:rx="1.6517857"
       sodipodi:ry="1.7857143"
       d="m 144.01786,228.61218 c 0,0.98623 -0.73953,1.78572 -1.65179,1.78572 -0.91225,0 -1.65178,-0.79949 -1.65178,-1.78572 0,-0.98622 0.73953,-1.78571 1.65178,-1.78571 0.91226,0 1.65179,0.79949 1.65179,1.78571 z"
       transform="matrix(1.2162163,0,0,1.1,-14.930687,-22.74694)"
       style="fill:#ff7f2a;fill-opacity:1"
       inkscape:export-filename="C:\Users\jupi\Desktop\aego150.png"
       inkscape:export-xdpi="150.10699"
       inkscape:export-ydpi="150.10699" />
    <path
       sodipodi:type="arc"
       id="path4425-7"
       sodipodi:cx="142.36607"
       sodipodi:cy="228.61218"
       sodipodi:rx="1.6517857"
       sodipodi:ry="1.7857143"
       d="m 144.01786,228.61218 c 0,0.98623 -0.73953,1.78572 -1.65179,1.78572 -0.91225,0 -1.65178,-0.79949 -1.65178,-1.78572 0,-0.98622 0.73953,-1.78571 1.65178,-1.78571 0.91226,0 1.65179,0.79949 1.65179,1.78571 z"
       transform="matrix(1.2162163,0,0,1.1,-8.5253569,-22.71569)"
       style="fill:#ff7f2a;fill-opacity:1"
       inkscape:export-filename="C:\Users\jupi\Desktop\aego150.png"
       inkscape:export-xdpi="150.10699"
       inkscape:export-ydpi="150.10699" />
    <path
       style="fill:#ff7f2a;fill-opacity:1;stroke:none"
       d="m 161.78511,237.10311 c 3.06338,0.004 5.84554,-1.84971 5.14068,-3.19367 -0.90562,-0.82457 -1.38654,1.63942 -5.05483,1.52922 -3.66829,-0.11028 -4.57888,-2.33669 -5.52009,-1.52335 -0.42694,1.11138 2.37087,3.1839 5.43424,3.1878 z"
       id="path4498"
       inkscape:connector-curvature="0"
       sodipodi:nodetypes="zczcz"
       inkscape:export-filename="C:\Users\jupi\Desktop\aego150.png"
       inkscape:export-xdpi="150.10699"
       inkscape:export-ydpi="150.10699" />
    <path
       sodipodi:type="arc"
       id="path4425-0"
       sodipodi:cx="142.36607"
       sodipodi:cy="228.61218"
       sodipodi:rx="1.6517857"
       sodipodi:ry="1.7857143"
       d="m 144.01786,228.61218 c 0,0.98623 -0.73953,1.78572 -1.65179,1.78572 -0.91225,0 -1.65178,-0.79949 -1.65178,-1.78572 0,-0.98622 0.73953,-1.78571 1.65178,-1.78571 0.91226,0 1.65179,0.79949 1.65179,1.78571 z"
       transform="matrix(0.84164083,0,0,1.4959798,-9.7776066,-113.23964)"
       style="fill:#ff7f2a;fill-opacity:1"
       inkscape:export-xdpi="150.10699"
       inkscape:export-ydpi="150.10699"
       inkscape:export-filename="C:\Users\jupi\Desktop\aego150.png" />
    <path
       sodipodi:type="arc"
       id="path4425-0-4"
       sodipodi:cx="142.36607"
       sodipodi:cy="228.61218"
       sodipodi:rx="1.6517857"
       sodipodi:ry="1.7857143"
       d="m 144.01786,228.61218 c 0,0.98623 -0.73953,1.78572 -1.65179,1.78572 -0.91225,0 -1.65178,-0.79949 -1.65178,-1.78572 0,-0.98622 0.73953,-1.78571 1.65178,-1.78571 0.91226,0 1.65179,0.79949 1.65179,1.78571 z"
       transform="matrix(1.2162163,0,0,1.1,7.7349107,-22.291964)"
       style="fill:#ff7f2a;fill-opacity:1"
       inkscape:export-filename="C:\Users\jupi\Desktop\aego150.png"
       inkscape:export-xdpi="150.10699"
       inkscape:export-ydpi="150.10699" />
    <path
       sodipodi:type="arc"
       id="path4425-0-8"
       sodipodi:cx="142.36607"
       sodipodi:cy="228.61218"
       sodipodi:rx="1.6517857"
       sodipodi:ry="1.7857143"
       d="m 144.01786,228.61218 c 0,0.98623 -0.73953,1.78572 -1.65179,1.78572 -0.91225,0 -1.65178,-0.79949 -1.65178,-1.78572 0,-0.98622 0.73953,-1.78571 1.65178,-1.78571 0.91226,0 1.65179,0.79949 1.65179,1.78571 z"
       transform="matrix(1.2162163,0,0,1.1,16.327997,-22.318312)"
       style="fill:#ff7f2a;fill-opacity:1"
       inkscape:export-filename="C:\Users\jupi\Desktop\aego150.png"
       inkscape:export-xdpi="150.10699"
       inkscape:export-ydpi="150.10699" />
    <path
       sodipodi:type="arc"
       id="path4425-0-82"
       sodipodi:cx="142.36607"
       sodipodi:cy="228.61218"
       sodipodi:rx="1.6517857"
       sodipodi:ry="1.7857143"
       d="m 144.01786,228.61218 c 0,0.98623 -0.73953,1.78572 -1.65179,1.78572 -0.91225,0 -1.65178,-0.79949 -1.65178,-1.78572 0,-0.98622 0.73953,-1.78571 1.65178,-1.78571 0.91226,0 1.65179,0.79949 1.65179,1.78571 z"
       transform="matrix(1.0021732,0,0,0.71639457,42.538406,68.254515)"
       style="fill:#ff7f2a;fill-opacity:1"
       inkscape:export-filename="C:\Users\jupi\Desktop\aego150.png"
       inkscape:export-xdpi="150.10699"
       inkscape:export-ydpi="150.10699" />
    <path
       sodipodi:type="arc"
       id="path4425-0-82-4"
       sodipodi:cx="142.36607"
       sodipodi:cy="228.61218"
       sodipodi:rx="1.6517857"
       sodipodi:ry="1.7857143"
       d="m 144.01786,228.61218 c 0,0.98623 -0.73953,1.78572 -1.65179,1.78572 -0.91225,0 -1.65178,-0.79949 -1.65178,-1.78572 0,-0.98622 0.73953,-1.78571 1.65178,-1.78571 0.91226,0 1.65179,0.79949 1.65179,1.78571 z"
       transform="matrix(1.8921022,0,0,1.1,-84.137222,-15.382968)"
       style="fill:#ff7f2a;fill-opacity:1"
       inkscape:export-filename="C:\Users\jupi\Desktop\aego150.png"
       inkscape:export-xdpi="150.10699"
       inkscape:export-ydpi="150.10699" />
    <path
       sodipodi:type="arc"
       id="path4425-0-5"
       sodipodi:cx="142.36607"
       sodipodi:cy="228.61218"
       sodipodi:rx="1.6517857"
       sodipodi:ry="1.7857143"
       d="m 144.01786,228.61218 c 0,0.98623 -0.73953,1.78572 -1.65179,1.78572 -0.91225,0 -1.65178,-0.79949 -1.65178,-1.78572 0,-0.98622 0.73953,-1.78571 1.65178,-1.78571 0.91226,0 1.65179,0.79949 1.65179,1.78571 z"
       transform="matrix(-1.619855,0,0,1.1494975,347.72698,-32.173407)"
       style="fill:#ff7f2a;fill-opacity:1"
       inkscape:export-xdpi="150.10699"
       inkscape:export-ydpi="150.10699"
       inkscape:export-filename="C:\Users\jupi\Desktop\aego150.png" />
    <path
       sodipodi:type="arc"
       id="path4425-0-51"
       sodipodi:cx="142.36607"
       sodipodi:cy="228.61218"
       sodipodi:rx="1.6517857"
       sodipodi:ry="1.7857143"
       d="m 144.01786,228.61218 c 0,0.98623 -0.73953,1.78572 -1.65179,1.78572 -0.91225,0 -1.65178,-0.79949 -1.65178,-1.78572 0,-0.98622 0.73953,-1.78571 1.65178,-1.78571 0.91226,0 1.65179,0.79949 1.65179,1.78571 z"
       transform="matrix(1.6443026,0,0,1.5949748,-122.5468,-129.15359)"
       style="fill:#ff7f2a;fill-opacity:1"
       inkscape:export-xdpi="150.10699"
       inkscape:export-ydpi="150.10699"
       inkscape:export-filename="C:\Users\jupi\Desktop\aego150.png" />
  </g>
</svg>
